<mxfile host="app.diagrams.net" modified="2024-06-21T16:26:22.332Z" agent="Mozilla/5.0 (Macintosh; Intel Mac OS X 10.15; rv:126.0) Gecko/20100101 Firefox/126.0" etag="KBiGwFu7DQXu7Kavk2M2" version="24.6.0" type="github">
  <diagram name="Page-1" id="FYFbfs70r8a1DUxwLw-P">
    <mxGraphModel dx="760" dy="1610" grid="1" gridSize="10" guides="1" tooltips="1" connect="1" arrows="1" fold="1" page="1" pageScale="1" pageWidth="850" pageHeight="1100" math="0" shadow="0">
      <root>
        <mxCell id="0" />
        <mxCell id="1" parent="0" />
        <mxCell id="h9Qz5bVL9A7yrGXVV5K0-3" value="" style="edgeStyle=orthogonalEdgeStyle;rounded=0;hachureGap=4;orthogonalLoop=1;jettySize=auto;html=1;fontFamily=Architects Daughter;fontSource=https%3A%2F%2Ffonts.googleapis.com%2Fcss%3Ffamily%3DArchitects%2BDaughter;" edge="1" parent="1" source="h9Qz5bVL9A7yrGXVV5K0-1" target="h9Qz5bVL9A7yrGXVV5K0-2">
          <mxGeometry relative="1" as="geometry" />
        </mxCell>
        <mxCell id="h9Qz5bVL9A7yrGXVV5K0-1" value="&lt;div style=&quot;font-size: 20px;&quot;&gt;&lt;font style=&quot;font-size: 20px;&quot;&gt;&lt;i&gt;&lt;b&gt;Intro to LLMs &amp;amp; Generative AI &lt;br&gt;&lt;/b&gt;&lt;/i&gt;&lt;/font&gt;&lt;/div&gt;&lt;div style=&quot;font-size: 20px;&quot;&gt;&lt;font style=&quot;font-size: 20px;&quot;&gt;&lt;i&gt;&lt;b&gt;Project LifeCycle&lt;/b&gt;&lt;/i&gt;&lt;/font&gt;&lt;br&gt;&lt;/div&gt;" style="shape=step;perimeter=stepPerimeter;whiteSpace=wrap;html=1;fixedSize=1;sketch=1;curveFitting=1;jiggle=2;shadow=0;rounded=1;fillStyle=cross-hatch;fillColor=#dae8fc;strokeColor=#6c8ebf;treeFolding=1;treeMoving=1;enumerate=1;" vertex="1" parent="1">
          <mxGeometry y="520" width="440" height="120" as="geometry" />
        </mxCell>
        <mxCell id="h9Qz5bVL9A7yrGXVV5K0-5" value="" style="edgeStyle=orthogonalEdgeStyle;shape=connector;rounded=0;hachureGap=4;orthogonalLoop=1;jettySize=auto;html=1;strokeColor=default;align=center;verticalAlign=middle;fontFamily=Architects Daughter;fontSource=https%3A%2F%2Ffonts.googleapis.com%2Fcss%3Ffamily%3DArchitects%2BDaughter;fontSize=11;fontColor=default;labelBackgroundColor=default;endArrow=classic;" edge="1" parent="1" source="h9Qz5bVL9A7yrGXVV5K0-2" target="h9Qz5bVL9A7yrGXVV5K0-4">
          <mxGeometry relative="1" as="geometry" />
        </mxCell>
        <mxCell id="h9Qz5bVL9A7yrGXVV5K0-6" value="&lt;font style=&quot;font-size: 13px;&quot;&gt;History&lt;/font&gt;" style="edgeLabel;html=1;align=center;verticalAlign=middle;resizable=0;points=[];sketch=1;hachureGap=4;jiggle=2;curveFitting=1;fontFamily=Architects Daughter;fontSource=https%3A%2F%2Ffonts.googleapis.com%2Fcss%3Ffamily%3DArchitects%2BDaughter;fontSize=11;fontColor=default;labelBackgroundColor=default;" vertex="1" connectable="0" parent="h9Qz5bVL9A7yrGXVV5K0-5">
          <mxGeometry x="0.1954" relative="1" as="geometry">
            <mxPoint as="offset" />
          </mxGeometry>
        </mxCell>
        <mxCell id="h9Qz5bVL9A7yrGXVV5K0-8" value="" style="edgeStyle=orthogonalEdgeStyle;shape=connector;rounded=0;hachureGap=4;orthogonalLoop=1;jettySize=auto;html=1;strokeColor=default;align=center;verticalAlign=middle;fontFamily=Architects Daughter;fontSource=https%3A%2F%2Ffonts.googleapis.com%2Fcss%3Ffamily%3DArchitects%2BDaughter;fontSize=11;fontColor=default;labelBackgroundColor=default;endArrow=classic;" edge="1" parent="1" source="h9Qz5bVL9A7yrGXVV5K0-2" target="h9Qz5bVL9A7yrGXVV5K0-7">
          <mxGeometry relative="1" as="geometry" />
        </mxCell>
        <mxCell id="h9Qz5bVL9A7yrGXVV5K0-2" value="How LLM Transformers Work?" style="whiteSpace=wrap;html=1;fillColor=#dae8fc;strokeColor=#6c8ebf;sketch=1;curveFitting=1;jiggle=2;shadow=0;rounded=1;fillStyle=cross-hatch;" vertex="1" parent="1">
          <mxGeometry x="420" y="80" width="120" height="40" as="geometry" />
        </mxCell>
        <mxCell id="h9Qz5bVL9A7yrGXVV5K0-4" value="&lt;font style=&quot;font-size: 15px;&quot;&gt;RNN&lt;/font&gt;" style="ellipse;whiteSpace=wrap;html=1;fillColor=#dae8fc;strokeColor=#6c8ebf;sketch=1;curveFitting=1;jiggle=2;shadow=0;rounded=1;fillStyle=cross-hatch;" vertex="1" parent="1">
          <mxGeometry x="280" y="-210" width="80" height="80" as="geometry" />
        </mxCell>
        <mxCell id="h9Qz5bVL9A7yrGXVV5K0-10" value="" style="edgeStyle=orthogonalEdgeStyle;shape=connector;rounded=0;hachureGap=4;orthogonalLoop=1;jettySize=auto;html=1;strokeColor=default;align=center;verticalAlign=middle;fontFamily=Architects Daughter;fontSource=https%3A%2F%2Ffonts.googleapis.com%2Fcss%3Ffamily%3DArchitects%2BDaughter;fontSize=11;fontColor=default;labelBackgroundColor=default;endArrow=classic;" edge="1" parent="1" source="h9Qz5bVL9A7yrGXVV5K0-7" target="h9Qz5bVL9A7yrGXVV5K0-9">
          <mxGeometry relative="1" as="geometry" />
        </mxCell>
        <mxCell id="h9Qz5bVL9A7yrGXVV5K0-7" value="&lt;font style=&quot;font-size: 15px;&quot;&gt;LLM&lt;/font&gt;" style="ellipse;whiteSpace=wrap;html=1;fillColor=#dae8fc;strokeColor=#6c8ebf;sketch=1;curveFitting=1;jiggle=2;shadow=0;rounded=1;fillStyle=cross-hatch;" vertex="1" parent="1">
          <mxGeometry x="600" y="-200" width="80" height="80" as="geometry" />
        </mxCell>
        <mxCell id="h9Qz5bVL9A7yrGXVV5K0-9" value="&lt;font style=&quot;font-size: 15px;&quot;&gt;Transformers&lt;/font&gt;" style="shape=trapezoid;perimeter=trapezoidPerimeter;whiteSpace=wrap;html=1;fixedSize=1;fillColor=#dae8fc;strokeColor=#6c8ebf;sketch=1;curveFitting=1;jiggle=2;shadow=0;rounded=1;fillStyle=cross-hatch;" vertex="1" parent="1">
          <mxGeometry x="580" y="-360" width="120" height="40" as="geometry" />
        </mxCell>
      </root>
    </mxGraphModel>
  </diagram>
</mxfile>
